<svg width="578" height="149" viewBox="0 0 578 149" fill="none" xmlns="http://www.w3.org/2000/svg">
<path d="M130.477 105.008L70.8086 139.617V72.9375L92.6641 61.5898V83.0977C92.6641 85.5859 94.6875 87.6094 97.1758 87.6094C97.9219 87.6094 98.6641 87.418 99.3281 87.0586L105.75 83.5625L108.879 81.8555C108.883 81.8555 108.883 81.8555 108.887 81.8516L109.598 81.4648C111.516 80.4219 112.703 78.4219 112.703 76.2383V51.8359C112.703 51.6211 112.688 51.4141 112.66 51.2031L118.129 48.3672L130.477 41.9531V105.008ZM7.14453 41.9531L66.8086 72.9375V139.617L7.14453 105.008V41.9531ZM68.8086 7.85156L128.137 38.6602L110.605 47.7656C110.418 47.6328 110.219 47.5078 110.008 47.3984L51.332 16.9297L68.8086 7.85156ZM94.3242 56.2188C94.2344 56.1641 94.1484 56.1055 94.0547 56.0586L34.918 25.5L47.0391 19.2031L106.32 49.9922L94.3242 56.2188ZM30.5273 27.7344L90 58.4648L68.8086 69.4688L9.48438 38.6602L30.5273 27.7344ZM106.973 78.3398L103.906 80.0117L103.293 80.3438L97.418 83.543C97.3359 83.5859 97.2578 83.6094 97.1758 83.6094C96.9688 83.6094 96.6641 83.4453 96.6641 83.0977V60.3438C96.6641 60.0859 96.6406 59.8359 96.6016 59.5859C96.5977 59.5742 96.5977 59.5625 96.5977 59.5469L108.703 53.2617V75.418C108.703 76.6367 108.039 77.7539 106.973 78.3398ZM134.402 38.1328C134.387 38.0742 134.355 38.0234 134.336 37.9688C134.297 37.8594 134.258 37.7539 134.199 37.6523C134.16 37.5937 134.113 37.543 134.074 37.4844C134.012 37.4023 133.949 37.3164 133.875 37.2422C133.824 37.1875 133.762 37.1484 133.703 37.1016C133.641 37.0508 133.582 36.9922 133.516 36.9531C133.492 36.9375 133.469 36.9336 133.449 36.9219C133.43 36.9102 133.414 36.8945 133.398 36.8867L69.7305 3.82422C69.1523 3.52344 68.4648 3.52344 67.8867 3.82422L4.22266 36.8867C4.20313 36.8945 4.19141 36.9102 4.17188 36.9219C4.14844 36.9336 4.125 36.9375 4.10547 36.9531C4.03516 36.9922 3.98047 37.0508 3.91797 37.1016C3.85937 37.1484 3.79687 37.1875 3.74219 37.2422C3.66797 37.3164 3.60938 37.3984 3.54688 37.4844C3.50391 37.5391 3.45703 37.5937 3.42188 37.6523C3.36328 37.7539 3.32422 37.8594 3.28516 37.9688C3.26563 38.0234 3.23438 38.0742 3.21875 38.1328C3.17188 38.3047 3.14453 38.4805 3.14453 38.6602V106.16C3.14453 106.871 3.52344 107.531 4.14062 107.891L67.8086 144.82C67.8125 144.82 67.8125 144.82 67.8125 144.82C67.9062 144.875 68.0078 144.906 68.1055 144.945C68.1719 144.969 68.2305 145.004 68.2969 145.023C68.4648 145.066 68.6367 145.09 68.8086 145.09C68.9844 145.09 69.1562 145.066 69.3242 145.023C69.3906 145.004 69.4492 144.969 69.5117 144.945C69.6133 144.906 69.7148 144.875 69.8086 144.82C69.8125 144.82 69.8125 144.82 69.8125 144.82L133.48 107.891C134.094 107.531 134.477 106.871 134.477 106.16V38.6602C134.477 38.4805 134.449 38.3047 134.402 38.1328Z" fill="#E9DAAC" stroke="#E9DAAC" stroke-width="6"/>
<path d="M164.9 37.2H192.8C197.467 37.2 201.967 37.9333 206.3 39.4C210.633 40.8 214.467 42.9667 217.8 45.9C221.133 48.8333 223.8 52.5333 225.8 57C227.8 61.4 228.8 66.6 228.8 72.6C228.8 78.6667 227.633 83.9333 225.3 88.4C223.033 92.8 220.067 96.4667 216.4 99.4C212.8 102.267 208.767 104.433 204.3 105.9C199.9 107.3 195.567 108 191.3 108H164.9V37.2ZM186.9 96.6C190.833 96.6 194.533 96.1667 198 95.3C201.533 94.3667 204.6 92.9667 207.2 91.1C209.8 89.1667 211.833 86.7 213.3 83.7C214.833 80.6333 215.6 76.9333 215.6 72.6C215.6 68.3333 214.933 64.6667 213.6 61.6C212.267 58.5333 210.4 56.0667 208 54.2C205.667 52.2667 202.867 50.8667 199.6 50C196.4 49.0667 192.867 48.6 189 48.6H177.5V96.6H186.9ZM239.679 60H251.679V67.6H251.879C253.212 64.8 255.112 62.6333 257.579 61.1C260.046 59.5667 262.879 58.8 266.079 58.8C266.812 58.8 267.512 58.8667 268.179 59C268.912 59.1333 269.646 59.3 270.379 59.5V71.1C269.379 70.8333 268.379 70.6333 267.379 70.5C266.446 70.3 265.512 70.2 264.579 70.2C261.779 70.2 259.512 70.7333 257.779 71.8C256.112 72.8 254.812 73.9667 253.879 75.3C253.012 76.6333 252.412 77.9667 252.079 79.3C251.812 80.6333 251.679 81.6333 251.679 82.3V108H239.679V60ZM308.546 101.4H308.246C306.513 104.133 304.313 106.133 301.646 107.4C298.979 108.6 296.046 109.2 292.846 109.2C290.646 109.2 288.479 108.9 286.346 108.3C284.279 107.7 282.413 106.8 280.746 105.6C279.146 104.4 277.846 102.9 276.846 101.1C275.846 99.3 275.346 97.2 275.346 94.8C275.346 92.2 275.813 90 276.746 88.2C277.679 86.3333 278.913 84.8 280.446 83.6C282.046 82.3333 283.879 81.3333 285.946 80.6C288.013 79.8667 290.146 79.3333 292.346 79C294.613 78.6 296.879 78.3667 299.146 78.3C301.413 78.1667 303.546 78.1 305.546 78.1H308.546V76.8C308.546 73.8 307.513 71.5667 305.446 70.1C303.379 68.5667 300.746 67.8 297.546 67.8C295.013 67.8 292.646 68.2667 290.446 69.2C288.246 70.0667 286.346 71.2667 284.746 72.8L278.446 66.5C281.113 63.7667 284.213 61.8 287.746 60.6C291.346 59.4 295.046 58.8 298.846 58.8C302.246 58.8 305.113 59.2 307.446 60C309.779 60.7333 311.713 61.7 313.246 62.9C314.779 64.1 315.946 65.5 316.746 67.1C317.613 68.6333 318.213 70.2 318.546 71.8C318.946 73.4 319.179 74.9667 319.246 76.5C319.313 77.9667 319.346 79.2667 319.346 80.4V108H308.546V101.4ZM307.846 86.5H305.346C303.679 86.5 301.813 86.5667 299.746 86.7C297.679 86.8333 295.713 87.1667 293.846 87.7C292.046 88.1667 290.513 88.9 289.246 89.9C287.979 90.8333 287.346 92.1667 287.346 93.9C287.346 95.0333 287.579 96 288.046 96.8C288.579 97.5333 289.246 98.1667 290.046 98.7C290.846 99.2333 291.746 99.6333 292.746 99.9C293.746 100.1 294.746 100.2 295.746 100.2C299.879 100.2 302.913 99.2333 304.846 97.3C306.846 95.3 307.846 92.6 307.846 89.2V86.5ZM336.557 70.2H326.657V60H336.557V53.2C336.557 49.8667 336.79 46.8667 337.257 44.2C337.724 41.4667 338.59 39.1333 339.857 37.2C341.19 35.2667 343.024 33.8 345.357 32.8C347.69 31.7333 350.724 31.2 354.457 31.2C357.19 31.2 359.724 31.4333 362.057 31.9L361.257 42.1C360.39 41.9 359.557 41.7333 358.757 41.6C357.957 41.4667 357.124 41.4 356.257 41.4C354.59 41.4 353.257 41.6667 352.257 42.2C351.257 42.7333 350.457 43.4667 349.857 44.4C349.324 45.2667 348.957 46.3 348.757 47.5C348.624 48.7 348.557 49.9667 348.557 51.3V60H359.657V70.2H348.557V108H336.557V70.2ZM361.813 70.2V60H371.713V46.1H383.713V60H396.913V70.2H383.713V91.2C383.713 93.6 384.147 95.5 385.013 96.9C385.947 98.3 387.747 99 390.413 99C391.48 99 392.647 98.9 393.913 98.7C395.18 98.4333 396.18 98.0333 396.913 97.5V107.6C395.647 108.2 394.08 108.6 392.213 108.8C390.413 109.067 388.813 109.2 387.413 109.2C384.213 109.2 381.58 108.833 379.513 108.1C377.513 107.433 375.913 106.4 374.713 105C373.58 103.533 372.78 101.733 372.313 99.6C371.913 97.4667 371.713 95 371.713 92.2V70.2H361.813ZM406.378 32.4H418.378V66.1H418.678C419.278 65.3 420.045 64.5 420.978 63.7C421.911 62.8333 423.045 62.0333 424.378 61.3C425.711 60.5667 427.245 59.9667 428.978 59.5C430.711 59.0333 432.711 58.8 434.978 58.8C438.378 58.8 441.511 59.4667 444.378 60.8C447.245 62.0667 449.678 63.8333 451.678 66.1C453.745 68.3667 455.345 71.0333 456.478 74.1C457.611 77.1667 458.178 80.4667 458.178 84C458.178 87.5333 457.645 90.8333 456.578 93.9C455.511 96.9667 453.945 99.6333 451.878 101.9C449.811 104.167 447.311 105.967 444.378 107.3C441.445 108.567 438.145 109.2 434.478 109.2C431.078 109.2 427.911 108.533 424.978 107.2C422.045 105.867 419.711 103.733 417.978 100.8H417.778V108H406.378V32.4ZM446.178 84C446.178 82.1333 445.845 80.3333 445.178 78.6C444.578 76.8667 443.645 75.3333 442.378 74C441.178 72.6667 439.711 71.6 437.978 70.8C436.245 70 434.278 69.6 432.078 69.6C429.878 69.6 427.911 70 426.178 70.8C424.445 71.6 422.945 72.6667 421.678 74C420.478 75.3333 419.545 76.8667 418.878 78.6C418.278 80.3333 417.978 82.1333 417.978 84C417.978 85.8667 418.278 87.6667 418.878 89.4C419.545 91.1333 420.478 92.6667 421.678 94C422.945 95.3333 424.445 96.4 426.178 97.2C427.911 98 429.878 98.4 432.078 98.4C434.278 98.4 436.245 98 437.978 97.2C439.711 96.4 441.178 95.3333 442.378 94C443.645 92.6667 444.578 91.1333 445.178 89.4C445.845 87.6667 446.178 85.8667 446.178 84ZM466.966 84C466.966 80.2 467.633 76.7667 468.966 73.7C470.366 70.5667 472.233 67.9 474.566 65.7C476.9 63.5 479.666 61.8 482.866 60.6C486.066 59.4 489.466 58.8 493.066 58.8C496.666 58.8 500.066 59.4 503.266 60.6C506.466 61.8 509.233 63.5 511.566 65.7C513.9 67.9 515.733 70.5667 517.066 73.7C518.466 76.7667 519.166 80.2 519.166 84C519.166 87.8 518.466 91.2667 517.066 94.4C515.733 97.4667 513.9 100.1 511.566 102.3C509.233 104.5 506.466 106.2 503.266 107.4C500.066 108.6 496.666 109.2 493.066 109.2C489.466 109.2 486.066 108.6 482.866 107.4C479.666 106.2 476.9 104.5 474.566 102.3C472.233 100.1 470.366 97.4667 468.966 94.4C467.633 91.2667 466.966 87.8 466.966 84ZM478.966 84C478.966 85.8667 479.266 87.6667 479.866 89.4C480.533 91.1333 481.466 92.6667 482.666 94C483.933 95.3333 485.433 96.4 487.166 97.2C488.9 98 490.866 98.4 493.066 98.4C495.266 98.4 497.233 98 498.966 97.2C500.7 96.4 502.166 95.3333 503.366 94C504.633 92.6667 505.566 91.1333 506.166 89.4C506.833 87.6667 507.166 85.8667 507.166 84C507.166 82.1333 506.833 80.3333 506.166 78.6C505.566 76.8667 504.633 75.3333 503.366 74C502.166 72.6667 500.7 71.6 498.966 70.8C497.233 70 495.266 69.6 493.066 69.6C490.866 69.6 488.9 70 487.166 70.8C485.433 71.6 483.933 72.6667 482.666 74C481.466 75.3333 480.533 76.8667 479.866 78.6C479.266 80.3333 478.966 82.1333 478.966 84ZM542.802 82.2L526.202 60H540.802L550.402 74.4L560.802 60H574.502L558.102 82.2L577.402 108H562.802L550.302 90.8L537.702 108H523.502L542.802 82.2Z" fill="#E9DAAC"/>
</svg>
